:SAMPLES-PER-SECOND 30
:FULLY-SPECIFIED
:DEGREES
1343
root  51.2712 37.7239 16.0302 -170.693 83.743 -164.617
RightUpLeg  -12.6769 -10.8528 -2.54461
RightLeg  29.1777 2.26811 1.12039
RightFoot  -7.86875 -0.0283985 -0.854626
RightToes  -1.33073e-015 0 -3.6325e-017
Spine  14.9895 -3.59451 12.0705
Spine1  8.66862 -1.07237 -1.1403
HEad  -7.99915 7.5769 -5.60706
LeftShoulder1  0.209668 2.90156 -28.6998
LeftArm  5.94787 7.50539 -43.5212
LeftForeArm  15.3189 -22.3988 -4.29551
LeftHand  -0.10792 2.21251 3.5858
RightShoulder  -0.223865 -4.15434 26.4851
RightArm  14.8646 -10.9796 39.7265
RightForeArm  -2.39039 36.2218 8.36308
RightHand  -0.619841 4.92686 -7.26461
LeftUpLeg  -9.27293 2.23799 7.56572
LeftLeg  61.9679 -0.326323 -0.054662
LeftFoot  -0.980781 0.360706 -3.91013
LeftToes  -1.93726e-010 2.42366e-011 2.16268e-013
1344
root  52.2921 37.9263 16.1586 -175.827 83.6618 -169.7
RightUpLeg  -10.152 -11.3787 -3.19346
RightLeg  28.0492 2.73236 1.32771
RightFoot  -9.19865 -0.0485524 -0.538364
RightToes  -1.33073e-015 0 -3.6325e-017
Spine  15.6198 -3.27113 11.4949
Spine1  7.24523 -0.911116 -0.94333
HEad  -6.92523 7.27072 -5.55072
LeftShoulder1  0.29545 2.65106 -28.5029
LeftArm  4.22394 9.63657 -43.8219
LeftForeArm  15.8385 -24.2279 -4.32214
LeftHand  -0.117241 2.34933 4.07873
RightShoulder  -0.0679563 -3.69788 24.7451
RightArm  11.1057 -11.9618 40.9736
RightForeArm  -0.258186 39.8178 9.35391
RightHand  -0.64075 4.64911 -7.67249
LeftUpLeg  -12.5268 4.05557 6.51757
LeftLeg  61.047 -0.655325 -0.701374
LeftFoot  -2.07773 0.297972 -3.51642
LeftToes  -1.93726e-010 2.42366e-011 2.16268e-013
1345
root  53.3345 38.1307 16.2492 -178.866 83.3057 -172.703
RightUpLeg  -7.26431 -12.3626 -3.74886
RightLeg  26.3067 3.42281 1.60289
RightFoot  -10.3853 -0.0793325 0.77747
RightToes  -1.33073e-015 0 -3.6325e-017
Spine  14.9119 -3.0974 11.6023
Spine1  7.69417 -0.682217 -1.89392
HEad  -6.54019 7.55875 -5.43365
LeftShoulder1  0.316278 2.59217 -28.5566
LeftArm  2.87414 9.78301 -43.5429
LeftForeArm  17.3132 -25.1007 -4.46051
LeftHand  -0.103276 2.3811 3.58212
RightShoulder  -0.121292 -3.8588 25.4854
RightArm  8.82484 -10.615 40.5279
RightForeArm  -1.05583 42.9545 10.5003
RightHand  -0.732668 5.2629 -8.27771
LeftUpLeg  -15.0839 5.75779 5.59537
LeftLeg  57.4448 -0.870904 -0.959114
LeftFoot  -3.31689 0.239918 -3.14788
LeftToes  -1.93726e-010 2.42366e-011 2.16268e-013
1346
root  54.2962 38.291 16.3141 -177.512 83.2321 -172.136
RightUpLeg  -5.90702 -12.6224 -3.56384
RightLeg  25.1753 3.42164 1.54064
RightFoot  -10.9212 -0.0715332 -0.464967
RightToes  -1.33073e-015 0 -3.6325e-017
Spine  14.8188 -2.65983 12.3278
Spine1  6.09835 -0.189879 -2.83795
HEad  -5.82864 7.33574 -5.44879
LeftShoulder1  0.388815 2.37941 -28.4502
LeftArm  2.41374 10.1043 -43.3293
LeftForeArm  17.7996 -26.046 -4.64151
LeftHand  -0.111187 2.14223 3.5795
RightShoulder  -0.0771665 -3.72499 24.9026
RightArm  6.31642 -10.7482 40.7976
RightForeArm  0.258714 46.444 11.784
RightHand  -0.698141 5.34744 -7.8296
LeftUpLeg  -18.0366 7.69548 4.92154
LeftLeg  51.7479 -0.990816 -0.891625
LeftFoot  -4.23104 0.234069 -3.35867
LeftToes  -1.93726e-010 2.42366e-011 2.16268e-013
1347
root  55.1842 38.373 16.357 -172.648 83.315 -168.351
RightUpLeg  -4.98373 -12.1724 -2.83368
RightLeg  23.872 2.98953 1.2871
RightFoot  -11.6996 -0.0791844 -0.0577058
RightToes  -1.33073e-015 0 -3.6325e-017
Spine  14.7991 -2.29315 14.2106
Spine1  4.35211 0.671789 -5.4378
HEad  -5.49313 6.79256 -4.81079
LeftShoulder1  0.426985 2.25887 -28.1545
LeftArm  2.0393 9.8319 -42.492
LeftForeArm  18.7976 -28.1233 -5.05676
LeftHand  -0.060279 3.58663 2.81744
RightShoulder  -0.131379 -3.89293 25.217
RightArm  3.91535 -10.2056 40.9444
RightForeArm  0.52449 49.755 13.267
RightHand  -0.856619 5.55066 -9.38191
LeftUpLeg  -20.6598 9.60769 4.55495
LeftLeg  44.2675 -1.2493 -0.919247
LeftFoot  -4.26441 0.270367 -3.9399
LeftToes  -1.93726e-010 2.42366e-011 2.16268e-013
1348
root  56.1214 38.4129 16.3626 -168.912 82.6359 -165.254
RightUpLeg  -3.44402 -12.2038 -2.29899
RightLeg  22.6735 2.34566 1.10328
RightFoot  -12.5568 -0.0821847 0.287056
RightToes  -1.33073e-015 0 -3.6325e-017
Spine  14.0887 -2.14046 15.0444
Spine1  4.1069 0.876085 -6.46095
HEad  -5.81671 6.59544 -4.32832
LeftShoulder1  0.469369 2.1365 -28.1906
LeftArm  0.592283 9.50505 -41.6983
LeftForeArm  20.3296 -30.4639 -5.51199
LeftHand  -0.0618353 3.69393 3.00747
RightShoulder  -0.20357 -4.11164 25.8231
RightArm  1.93518 -8.38243 40.8261
RightForeArm  2.46386 52.4991 14.5299
RightHand  -0.852373 5.26673 -9.58432
LeftUpLeg  -21.8199 10.3794 4.28077
LeftLeg  34.8668 -1.70002 -0.885301
LeftFoot  -3.58166 0.41822 -5.88102
LeftToes  -1.93726e-010 2.42366e-011 2.16268e-013
1349
root  57.2012 38.4634 16.3781 -169.27 80.9231 -165.088
RightUpLeg  0.329595 -13.0354 -2.36925
RightLeg  20.5361 1.56467 1.1067
RightFoot  -13.5141 -0.0857681 0.308896
RightToes  -1.33073e-015 0 -3.6325e-017
Spine  12.8153 -2.14375 13.7766
Spine1  5.43098 0.290596 -5.12583
HEad  -5.88264 7.00058 -4.40417
LeftShoulder1  0.500801 2.03037 -27.859
LeftArm  0.0999743 8.18053 -41.4391
LeftForeArm  20.4465 -31.2462 -5.70251
LeftHand  -0.0507061 4.06362 2.7097
RightShoulder  -0.12331 -3.86932 25.1815
RightArm  0.423549 -6.23348 41.7922
RightForeArm  2.81811 53.6393 15.162
RightHand  -0.796984 3.94437 -10.138
LeftUpLeg  -20.7616 9.80945 4.30156
LeftLeg  24.4806 -2.5037 -0.930114
LeftFoot  -2.01381 0.49114 -5.83553
LeftToes  -1.93726e-010 2.42366e-011 2.16268e-013
1350
root  58.0878 38.4325 16.2958 -170.907 80.8075 -165.798
RightUpLeg  3.36545 -13.1688 -2.96678
RightLeg  19.7321 1.66312 1.07557
RightFoot  -14.5915 -0.0863931 0.422867
RightToes  -1.33073e-015 0 -3.6325e-017
Spine  13.6933 -1.99633 12.6045
Spine1  5.69824 0.358215 -4.92987
HEad  -6.40756 6.99867 -4.06902
LeftShoulder1  0.577004 1.78496 -27.4124
LeftArm  -1.86204 7.34148 -41.3655
LeftForeArm  21.828 -33.5432 -6.1886
LeftHand  -0.0634581 3.55778 2.95066
RightShoulder  -0.0917542 -3.77353 24.6773
RightArm  -0.193195 -3.11264 42.5576
RightForeArm  2.25923 54.1949 15.542
RightHand  -0.675481 3.54598 -9.03291
LeftUpLeg  -18.7436 8.51128 4.32098
LeftLeg  14.2903 -1.35886 -0.242485
LeftFoot  0.166777 0.70429 -7.02012
LeftToes  -1.93726e-010 2.42366e-011 2.16268e-013
1351
root  58.9356 38.2822 16.1612 -170.649 81.3697 -165.088
RightUpLeg  4.98935 -12.7552 -3.20855
RightLeg  20.3475 1.82262 0.742421
RightFoot  -16.2303 -0.0762634 0.799434
RightToes  -1.33073e-015 0 -3.6325e-017
Spine  14.5707 -1.6543 11.6984
Spine1  5.50874 0.736399 -5.19279
HEad  -7.19727 7.12404 -3.71263
LeftShoulder1  0.59377 1.725 -27.2299
LeftArm  -1.83896 4.64507 -40.5831
LeftForeArm  21.0273 -33.9739 -6.35039
LeftHand  -0.0712493 3.43062 3.31497
RightShoulder  -0.0467016 -3.6287 24.5605
RightArm  -0.863292 0.356532 43.3538
RightForeArm  1.35657 53.9835 15.4907
RightHand  -0.628601 4.53167 -7.59101
LeftUpLeg  -17.5099 6.97161 4.77599
LeftLeg  6.73221 0.484492 -0.320658
LeftFoot  2.60897 0.898041 -7.46998
LeftToes  -1.93726e-010 2.42366e-011 2.16268e-013
1352
root  59.8519 38.0172 15.9681 -168.231 81.0703 -161.335
RightUpLeg  7.53169 -12.5232 -3.11929
RightLeg  21.4762 1.50998 0.444408
RightFoot  -17.9596 -0.0426056 1.37687
RightToes  -1.33073e-015 0 -3.6325e-017
Spine  15.3664 -1.79364 11.4417
Spine1  6.33753 0.811972 -5.68551
HEad  -7.69464 7.16359 -3.21338
LeftShoulder1  0.621755 1.62225 -26.8789
LeftArm  -2.15481 1.57752 -39.9176
LeftForeArm  19.9353 -34.7119 -6.60752
LeftHand  -0.0981851 3.29042 4.58473
RightShoulder  -0.0336116 -3.58662 24.3221
RightArm  -1.17365 4.00827 44.6512
RightForeArm  0.228052 53.2028 15.1192
RightHand  -0.826096 5.56778 -9.0564
LeftUpLeg  -16.5744 6.67161 5.32734
LeftLeg  4.42401 -0.0327853 -0.464756
LeftFoot  2.67958 1.08337 -8.87285
LeftToes  -1.93726e-010 2.42366e-011 2.16268e-013
1353
root  60.7916 37.6918 15.7211 -171.661 80.6577 -163.725
RightUpLeg  9.20837 -12.6146 -4.32744
RightLeg  24.2533 1.60781 0.570317
RightFoot  -20.4234 0.115922 3.09708
RightToes  -1.33073e-015 0 -3.6325e-017
Spine  15.3661 -1.69182 9.49831
Spine1  8.05979 0.642709 -5.09616
HEad  -8.03067 6.65282 -2.72453
LeftShoulder1  0.630932 1.59695 -26.9265
LeftArm  -2.74624 -2.82631 -39.2959
LeftForeArm  19.9024 -34.421 -6.53282
LeftHand  -0.158234 1.87026 4.97524
RightShoulder  0.0330492 -3.36749 23.7712
RightArm  -2.02265 8.0021 45.93
RightForeArm  -1.15214 52.2594 14.6923
RightHand  -0.867033 5.62265 -9.42905
LeftUpLeg  -16.9167 6.51111 4.36977
LeftLeg  7.0139 -1.95943 -0.612588
LeftFoot  5.57175 0.910514 -6.62183
LeftToes  -1.93726e-010 2.42366e-011 2.16268e-013
1354
root  61.7736 37.2794 15.4607 -176.602 80.3559 -169.042
RightUpLeg  8.21301 -12.5177 -5.8552
RightLeg  29.5259 1.94091 0.939172
RightFoot  -23.0717 0.513033 6.52179
RightToes  -1.33073e-015 0 -3.6325e-017
Spine  14.876 -1.13652 6.62011
Spine1  8.35583 0.518726 -3.93653
HEad  -8.66968 5.74695 -1.74167
LeftShoulder1  0.665751 1.47951 -26.7177
LeftArm  -3.76955 -6.96652 -39.0774
LeftForeArm  19.9626 -34.3565 -6.51251
LeftHand  -0.119791 2.62712 4.59803
RightShoulder  0.0820316 -3.20115 23.3215
RightArm  -1.25867 11.7934 46.2671
RightForeArm  -2.765 51.0098 14.1397
RightHand  -0.909033 5.68835 -9.81433
LeftUpLeg  -18.9883 6.48871 2.62647
LeftLeg  11.9247 -3.71739 -1.00341
LeftFoot  11.4532 0.15739 -1.01879
LeftToes  -1.93726e-010 2.42366e-011 2.16268e-013
1355
root  62.5246 36.9189 15.1851 -179.527 80.6173 -171.264
RightUpLeg  6.81645 -11.5067 -7.13609
RightLeg  36.6782 2.24549 1.56539
RightFoot  -22.9061 0.929796 10.7588
RightToes  -1.33073e-015 0 -3.6325e-017
Spine  16.9268 -0.778885 4.8504
Spine1  7.95241 0.771904 -4.38044
HEad  -9.33022 4.90451 -0.705139
LeftShoulder1  0.727698 1.26291 -26.3155
LeftArm  -3.90873 -11.6515 -39.0698
LeftForeArm  17.7625 -33.4822 -6.41391
LeftHand  -0.129057 2.88835 5.41916
RightShoulder  0.127856 -3.04166 22.9661
RightArm  -0.667208 15.9961 46.6615
RightForeArm  -3.18304 49.219 13.277
RightHand  -0.833722 5.87812 -8.89163
LeftUpLeg  -20.8177 7.07722 1.73309
LeftLeg  18.886 -4.27663 -1.30082
LeftFoot  10.6597 -0.624573 2.86746
LeftToes  -1.93726e-010 2.42366e-011 2.16268e-013
1356
root  63.1546 36.6297 14.9198 175.797 81.0038 -175.581
RightUpLeg  3.18297 -11.1716 -9.31914
RightLeg  46.2874 3.40574 3.51653
RightFoot  -19.423 1.04102 16.8937
RightToes  -1.33073e-015 0 -3.6325e-017
Spine  18.2674 -0.418633 3.07707
Spine1  9.2135 1.0046 -5.02991
HEad  -10.609 5.40939 -0.347412
LeftShoulder1  0.85075 0.833116 -25.6478
LeftArm  -6.10595 -17.0601 -39.6557
LeftForeArm  17.1684 -32.2403 -6.1333
LeftHand  -0.171045 2.14579 5.83973
RightShoulder  0.225269 -2.68506 22.1185
RightArm  -0.396493 21.5697 47.9178
RightForeArm  -4.58358 46.1888 12.0108
RightHand  -0.794551 6.28551 -8.20834
LeftUpLeg  -21.9415 8.05828 0.911913
LeftLeg  24.0456 -4.74536 -1.96085
LeftFoot  7.2851 -0.483671 2.69144
LeftToes  -1.93726e-010 2.42366e-011 2.16268e-013
1357
root  63.6902 36.5736 14.6179 168.848 81.9172 176.848
RightUpLeg  -2.46481 -10.6083 -11.9015
RightLeg  55.2161 4.03473 5.8072
RightFoot  -13.1226 0.258151 21.411
RightToes  -1.33073e-015 0 -3.6325e-017
Spine  19.9338 -0.00874407 1.63385
Spine1  8.86109 1.41143 -5.91215
HEad  -12.6606 4.96152 -0.406113
LeftShoulder1  0.926181 0.571837 -25.3942
LeftArm  -6.78416 -22.7346 -39.464
LeftForeArm  15.6763 -30.5656 -5.80175
LeftHand  -0.193101 1.79511 6.04123
RightShoulder  0.352114 -2.18305 20.6893
RightArm  0.651793 27.0422 49.165
RightForeArm  -7.73302 42.5745 10.7675
RightHand  -0.828412 6.72471 -8.26398
LeftUpLeg  -22.3595 9.9006 -0.541506
LeftLeg  25.8974 -4.61314 -2.09015
LeftFoot  5.60684 -0.573895 3.61263
LeftToes  -1.93726e-010 2.42366e-011 2.16268e-013
